<?xml version="1.0" encoding="UTF-8" standalone="no"?>
<!DOCTYPE svg PUBLIC "-//W3C//DTD SVG 1.0//EN" "http://www.w3.org/TR/2001/PR-SVG-20010719/DTD/svg10.dtd">
<svg width="31cm" height="44cm" viewBox="38 39 603 862" xmlns="http://www.w3.org/2000/svg" xmlns:xlink="http://www.w3.org/1999/xlink">
  <g>
    <path style="fill: #b4ffb4" d="M 80 60 C 100,60 580,60 600,60 C 620,60 640,80 640,100 C 640,120 640,820 640,840 C 640,860 620,880 600,880 C 580,880 100,880 80,880 C 60,880 40,860 40,840 C 40,820 40,120 40,100 C 40,80 60,60 80,60z"/>
    <path style="fill: none; fill-opacity:0; stroke-width: 2; stroke: #000000" d="M 80 60 C 100,60 580,60 600,60 C 620,60 640,80 640,100 C 640,120 640,820 640,840 C 640,860 620,880 600,880 C 580,880 100,880 80,880 C 60,880 40,860 40,840 C 40,820 40,120 40,100 C 40,80 60,60 80,60"/>
  </g>
  <g>
    <rect style="fill: #ffffff" x="270" y="300" width="97.1" height="36" rx="20" ry="20"/>
    <rect style="fill: none; fill-opacity:0; stroke-width: 2; stroke: #000000" x="270" y="300" width="97.1" height="36" rx="20" ry="20"/>
    <text font-size="12.8" style="fill: #000000;text-anchor:middle;font-family:sans-serif;font-style:normal;font-weight:normal" x="318.55" y="321.9">
      <tspan x="318.55" y="321.9">Select Node</tspan>
    </text>
  </g>
  <g>
    <rect style="fill: #ffffff" x="160" y="180" width="95.65" height="36" rx="20" ry="20"/>
    <rect style="fill: none; fill-opacity:0; stroke-width: 2; stroke: #000000" x="160" y="180" width="95.65" height="36" rx="20" ry="20"/>
    <text font-size="12.8" style="fill: #000000;text-anchor:middle;font-family:sans-serif;font-style:normal;font-weight:normal" x="207.825" y="201.9">
      <tspan x="207.825" y="201.9">Toggle View</tspan>
    </text>
  </g>
  <g>
    <rect style="fill: #ffffff" x="120" y="500" width="86.65" height="36" rx="20" ry="20"/>
    <rect style="fill: none; fill-opacity:0; stroke-width: 2; stroke: #000000" x="120" y="500" width="86.65" height="36" rx="20" ry="20"/>
    <text font-size="12.8" style="fill: #000000;text-anchor:middle;font-family:sans-serif;font-style:normal;font-weight:normal" x="163.325" y="521.9">
      <tspan x="163.325" y="521.9">Edit Name</tspan>
    </text>
  </g>
  <g>
    <rect style="fill: #ffffff" x="260" y="500" width="121.75" height="36" rx="20" ry="20"/>
    <rect style="fill: none; fill-opacity:0; stroke-width: 2; stroke: #000000" x="260" y="500" width="121.75" height="36" rx="20" ry="20"/>
    <text font-size="12.8" style="fill: #000000;text-anchor:middle;font-family:sans-serif;font-style:normal;font-weight:normal" x="320.875" y="521.9">
      <tspan x="320.875" y="521.9">Edit Description</tspan>
    </text>
  </g>
  <g>
    <rect style="fill: #ffffff" x="440" y="480" width="134.65" height="52" rx="20" ry="20"/>
    <rect style="fill: none; fill-opacity:0; stroke-width: 2; stroke: #000000" x="440" y="480" width="134.65" height="52" rx="20" ry="20"/>
    <text font-size="12.8" style="fill: #000000;text-anchor:middle;font-family:sans-serif;font-style:normal;font-weight:normal" x="507.325" y="501.9">
      <tspan x="507.325" y="501.9">Toggle</tspan>
      <tspan x="507.325" y="517.9">isPartOfTaxonomy</tspan>
    </text>
  </g>
  <g>
    <rect style="fill: #ffffff" x="160" y="660" width="80" height="36" rx="20" ry="20"/>
    <rect style="fill: none; fill-opacity:0; stroke-width: 2; stroke: #000000" x="160" y="660" width="80" height="36" rx="20" ry="20"/>
    <text font-size="12.8" style="fill: #000000;text-anchor:middle;font-family:sans-serif;font-style:normal;font-weight:normal" x="200" y="681.9">
      <tspan x="200" y="681.9">Cancel</tspan>
    </text>
  </g>
  <g>
    <rect style="fill: #ffffff" x="400" y="660" width="80" height="36" rx="20" ry="20"/>
    <rect style="fill: none; fill-opacity:0; stroke-width: 2; stroke: #000000" x="400" y="660" width="80" height="36" rx="20" ry="20"/>
    <text font-size="12.8" style="fill: #000000;text-anchor:middle;font-family:sans-serif;font-style:normal;font-weight:normal" x="440" y="681.9">
      <tspan x="440" y="681.9">Save</tspan>
    </text>
  </g>
  <g>
    <polygon style="fill: #ffffff" points="300,200 320,180 340,200 320,220 "/>
    <polygon style="fill: none; fill-opacity:0; stroke-width: 2; stroke: #000000" points="300,200 320,180 340,200 320,220 "/>
  </g>
  <g>
    <polyline style="fill: none; fill-opacity:0; stroke-width: 2; stroke: #000000" points="320,220 320,260 318.55,260 318.55,295.528 "/>
    <polyline style="fill: none; fill-opacity:0; stroke-width: 2; stroke: #000000" points="313.55,287.764 318.55,297.764 323.55,287.764 "/>
  </g>
  <g>
    <polyline style="fill: none; fill-opacity:0; stroke-width: 2; stroke: #000000" points="270,318 120,318 120,140 320,140 320,175.528 "/>
    <polyline style="fill: none; fill-opacity:0; stroke-width: 2; stroke: #000000" points="315,167.764 320,177.764 325,167.764 "/>
  </g>
  <g>
    <polygon style="fill: #ffffff" points="300,420 320,400 340,420 320,440 "/>
    <polygon style="fill: none; fill-opacity:0; stroke-width: 2; stroke: #000000" points="300,420 320,400 340,420 320,440 "/>
  </g>
  <g>
    <polyline style="fill: none; fill-opacity:0; stroke-width: 2; stroke: #000000" points="318.55,336 318.55,368 320,368 320,395.528 "/>
    <polyline style="fill: none; fill-opacity:0; stroke-width: 2; stroke: #000000" points="315,387.764 320,397.764 325,387.764 "/>
  </g>
  <g>
    <polyline style="fill: none; fill-opacity:0; stroke-width: 2; stroke: #000000" points="300,420 163.325,420 163.325,495.528 "/>
    <polyline style="fill: none; fill-opacity:0; stroke-width: 2; stroke: #000000" points="158.325,487.764 163.325,497.764 168.325,487.764 "/>
  </g>
  <g>
    <polyline style="fill: none; fill-opacity:0; stroke-width: 2; stroke: #000000" points="340,420 507.325,420 507.325,475.528 "/>
    <polyline style="fill: none; fill-opacity:0; stroke-width: 2; stroke: #000000" points="502.325,467.764 507.325,477.764 512.325,467.764 "/>
  </g>
  <g>
    <polyline style="fill: none; fill-opacity:0; stroke-width: 2; stroke: #000000" points="160,198 120,198 120,140 320,140 320,175.528 "/>
    <polyline style="fill: none; fill-opacity:0; stroke-width: 2; stroke: #000000" points="315,167.764 320,177.764 325,167.764 "/>
  </g>
  <g>
    <polyline style="fill: none; fill-opacity:0; stroke-width: 2; stroke: #000000" points="320,440 320,470 320.875,470 320.875,495.528 "/>
    <polyline style="fill: none; fill-opacity:0; stroke-width: 2; stroke: #000000" points="315.875,487.764 320.875,497.764 325.875,487.764 "/>
  </g>
  <g>
    <polygon style="fill: #ffffff" points="300,640 320,620 340,640 320,660 "/>
    <polygon style="fill: none; fill-opacity:0; stroke-width: 2; stroke: #000000" points="300,640 320,620 340,640 320,660 "/>
  </g>
  <g>
    <polyline style="fill: none; fill-opacity:0; stroke-width: 2; stroke: #000000" points="320.875,536 320.875,578 320,578 320,615.528 "/>
    <polyline style="fill: none; fill-opacity:0; stroke-width: 2; stroke: #000000" points="315,607.764 320,617.764 325,607.764 "/>
  </g>
  <g>
    <polyline style="fill: none; fill-opacity:0; stroke-width: 2; stroke: #000000" points="507.326,532 507.326,580 320,580 320,615.528 "/>
    <polyline style="fill: none; fill-opacity:0; stroke-width: 2; stroke: #000000" points="315,607.764 320,617.764 325,607.764 "/>
  </g>
  <g>
    <polyline style="fill: none; fill-opacity:0; stroke-width: 2; stroke: #000000" points="163.325,536 163.325,580 320,580 320,615.528 "/>
    <polyline style="fill: none; fill-opacity:0; stroke-width: 2; stroke: #000000" points="315,607.764 320,617.764 325,607.764 "/>
  </g>
  <g>
    <polyline style="fill: none; fill-opacity:0; stroke-width: 2; stroke: #000000" points="300,640 270,640 270,640 200,640 200,655.528 "/>
    <polyline style="fill: none; fill-opacity:0; stroke-width: 2; stroke: #000000" points="195,647.764 200,657.764 205,647.764 "/>
  </g>
  <g>
    <polygon style="fill: #ffffff" points="300,780 320,760 340,780 320,800 "/>
    <polygon style="fill: none; fill-opacity:0; stroke-width: 2; stroke: #000000" points="300,780 320,760 340,780 320,800 "/>
  </g>
  <g>
    <polyline style="fill: none; fill-opacity:0; stroke-width: 2; stroke: #000000" points="340,640 370,640 370,640 440,640 440,655.528 "/>
    <polyline style="fill: none; fill-opacity:0; stroke-width: 2; stroke: #000000" points="435,647.764 440,657.764 445,647.764 "/>
  </g>
  <g>
    <polyline style="fill: none; fill-opacity:0; stroke-width: 2; stroke: #000000" points="200,696 200,720 320,720 320,755.528 "/>
    <polyline style="fill: none; fill-opacity:0; stroke-width: 2; stroke: #000000" points="315,747.764 320,757.764 325,747.764 "/>
  </g>
  <g>
    <polyline style="fill: none; fill-opacity:0; stroke-width: 2; stroke: #000000" points="440,696 440,720 320,720 320,755.528 "/>
    <polyline style="fill: none; fill-opacity:0; stroke-width: 2; stroke: #000000" points="315,747.764 320,757.764 325,747.764 "/>
  </g>
  <g>
    <polyline style="fill: none; fill-opacity:0; stroke-width: 2; stroke: #000000" points="320,800 320,855.528 "/>
    <polyline style="fill: none; fill-opacity:0; stroke-width: 2; stroke: #000000" points="315,847.764 320,857.764 325,847.764 "/>
    <text font-size="12.7998" style="fill: #000000;text-anchor:middle;font-family:sans-serif;font-style:normal;font-weight:normal" x="300" y="820">done</text>
  </g>
  <g>
    <polyline style="fill: none; fill-opacity:0; stroke-width: 2; stroke: #000000" points="300,780 60,780 60,120 320,120 320,175.528 "/>
    <polyline style="fill: none; fill-opacity:0; stroke-width: 2; stroke: #000000" points="315,167.764 320,177.764 325,167.764 "/>
  </g>
  <g>
    <rect style="fill: #ffffff" x="240" y="40" width="160" height="40"/>
    <rect style="fill: none; fill-opacity:0; stroke-width: 2; stroke: #000000" x="240" y="40" width="160" height="40"/>
  </g>
  <text font-size="12.8" style="fill: #000000;text-anchor:middle;font-family:sans-serif;font-style:normal;font-weight:normal" x="320" y="64.45">
    <tspan x="320" y="64.45">Modify Lattice</tspan>
  </text>
  <g>
    <rect style="fill: #ffffff" x="240" y="860" width="160" height="40"/>
    <rect style="fill: none; fill-opacity:0; stroke-width: 2; stroke: #000000" x="240" y="860" width="160" height="40"/>
  </g>
  <text font-size="12.8" style="fill: #000000;text-anchor:middle;font-family:sans-serif;font-style:normal;font-weight:normal" x="320" y="884.45">
    <tspan x="320" y="884.45">Lattice Modfied</tspan>
  </text>
  <g>
    <polyline style="fill: none; fill-opacity:0; stroke-width: 2; stroke: #000000" points="320,80 320,90 320,170 320,175.528 "/>
    <polyline style="fill: none; fill-opacity:0; stroke-width: 2; stroke: #000000" points="315,167.764 320,177.764 325,167.764 "/>
  </g>
  <g>
    <polyline style="fill: none; fill-opacity:0; stroke-width: 2; stroke: #000000" points="300,200 277.825,200 277.825,198 260.122,198 "/>
    <polyline style="fill: none; fill-opacity:0; stroke-width: 2; stroke: #000000" points="267.886,193 257.886,198 267.886,203 "/>
  </g>
  <g>
    <polyline style="fill: none; fill-opacity:0; stroke-width: 2; stroke: #000000" points="340,200 620,200 620,820 320,820 320,855.528 "/>
    <polyline style="fill: none; fill-opacity:0; stroke-width: 2; stroke: #000000" points="315,847.764 320,857.764 325,847.764 "/>
  </g>
  <text font-size="16.9333" style="fill: #000000;text-anchor:start;font-family:sans-serif;font-style:normal;font-weight:700" x="80" y="105.875">
    <tspan x="80" y="105.875">Modify Lattice</tspan>
  </text>
</svg>
