<?xml version="1.0" encoding="UTF-8" standalone="no"?>
<!DOCTYPE svg PUBLIC "-//W3C//DTD SVG 1.0//EN" "http://www.w3.org/TR/2001/PR-SVG-20010719/DTD/svg10.dtd">
<svg width="60cm" height="45cm" viewBox="-746 78 1187 883" xmlns="http://www.w3.org/2000/svg" xmlns:xlink="http://www.w3.org/1999/xlink">
  <g>
    <ellipse style="fill: #ffffff" cx="280.001" cy="124" rx="6" ry="6"/>
    <ellipse style="fill: none; fill-opacity:0; stroke-width: 2; stroke: #000000" cx="280.001" cy="124" rx="6" ry="6"/>
    <line style="fill: none; fill-opacity:0; stroke-width: 2; stroke: #000000" x1="256.001" y1="136" x2="304.001" y2="136"/>
    <line style="fill: none; fill-opacity:0; stroke-width: 2; stroke: #000000" x1="280.001" y1="130" x2="280.001" y2="160"/>
    <line style="fill: none; fill-opacity:0; stroke-width: 2; stroke: #000000" x1="280.001" y1="160" x2="256.001" y2="186"/>
    <line style="fill: none; fill-opacity:0; stroke-width: 2; stroke: #000000" x1="280.001" y1="160" x2="304.001" y2="186"/>
    <text font-size="12.8" style="fill: #000000;text-anchor:middle;font-family:sans-serif;font-style:normal;font-weight:normal" x="280.001" y="209.9">
      <tspan x="280.001" y="209.9">elgg Plug-In</tspan>
      <tspan x="280.001" y="225.9">Logic</tspan>
    </text>
  </g>
  <g>
    <ellipse style="fill: #ffffff" cx="280" cy="804" rx="6" ry="6"/>
    <ellipse style="fill: none; fill-opacity:0; stroke-width: 2; stroke: #000000" cx="280" cy="804" rx="6" ry="6"/>
    <line style="fill: none; fill-opacity:0; stroke-width: 2; stroke: #000000" x1="256" y1="816" x2="304" y2="816"/>
    <line style="fill: none; fill-opacity:0; stroke-width: 2; stroke: #000000" x1="280" y1="810" x2="280" y2="840"/>
    <line style="fill: none; fill-opacity:0; stroke-width: 2; stroke: #000000" x1="280" y1="840" x2="256" y2="866"/>
    <line style="fill: none; fill-opacity:0; stroke-width: 2; stroke: #000000" x1="280" y1="840" x2="304" y2="866"/>
    <text font-size="12.8" style="fill: #000000;text-anchor:middle;font-family:sans-serif;font-style:normal;font-weight:normal" x="280" y="889.9">
      <tspan x="280" y="889.9">FCA DB</tspan>
    </text>
  </g>
  <g>
    <ellipse style="fill: #ffffff" cx="280" cy="404" rx="6" ry="6"/>
    <ellipse style="fill: none; fill-opacity:0; stroke-width: 2; stroke: #000000" cx="280" cy="404" rx="6" ry="6"/>
    <line style="fill: none; fill-opacity:0; stroke-width: 2; stroke: #000000" x1="256" y1="416" x2="304" y2="416"/>
    <line style="fill: none; fill-opacity:0; stroke-width: 2; stroke: #000000" x1="280" y1="410" x2="280" y2="440"/>
    <line style="fill: none; fill-opacity:0; stroke-width: 2; stroke: #000000" x1="280" y1="440" x2="256" y2="466"/>
    <line style="fill: none; fill-opacity:0; stroke-width: 2; stroke: #000000" x1="280" y1="440" x2="304" y2="466"/>
    <text font-size="12.8" style="fill: #000000;text-anchor:middle;font-family:sans-serif;font-style:normal;font-weight:normal" x="280" y="489.9">
      <tspan x="280" y="489.9">FCA REST</tspan>
      <tspan x="280" y="505.9">Interface</tspan>
    </text>
  </g>
  <g>
    <ellipse style="fill: #ffffff" cx="280" cy="644" rx="6" ry="6"/>
    <ellipse style="fill: none; fill-opacity:0; stroke-width: 2; stroke: #000000" cx="280" cy="644" rx="6" ry="6"/>
    <line style="fill: none; fill-opacity:0; stroke-width: 2; stroke: #000000" x1="256" y1="656" x2="304" y2="656"/>
    <line style="fill: none; fill-opacity:0; stroke-width: 2; stroke: #000000" x1="280" y1="650" x2="280" y2="680"/>
    <line style="fill: none; fill-opacity:0; stroke-width: 2; stroke: #000000" x1="280" y1="680" x2="256" y2="706"/>
    <line style="fill: none; fill-opacity:0; stroke-width: 2; stroke: #000000" x1="280" y1="680" x2="304" y2="706"/>
    <text font-size="12.8" style="fill: #000000;text-anchor:middle;font-family:sans-serif;font-style:normal;font-weight:normal" x="280" y="729.9">
      <tspan x="280" y="729.9">FCA BL</tspan>
      <tspan x="280" y="745.9">(Colibri)</tspan>
    </text>
  </g>
  <g>
    <ellipse style="fill: #ffffff" cx="-720" cy="384" rx="6" ry="6"/>
    <ellipse style="fill: none; fill-opacity:0; stroke-width: 2; stroke: #000000" cx="-720" cy="384" rx="6" ry="6"/>
    <line style="fill: none; fill-opacity:0; stroke-width: 2; stroke: #000000" x1="-744" y1="396" x2="-696" y2="396"/>
    <line style="fill: none; fill-opacity:0; stroke-width: 2; stroke: #000000" x1="-720" y1="390" x2="-720" y2="420"/>
    <line style="fill: none; fill-opacity:0; stroke-width: 2; stroke: #000000" x1="-720" y1="420" x2="-744" y2="446"/>
    <line style="fill: none; fill-opacity:0; stroke-width: 2; stroke: #000000" x1="-720" y1="420" x2="-696" y2="446"/>
    <text font-size="12.8" style="fill: #000000;text-anchor:middle;font-family:sans-serif;font-style:normal;font-weight:normal" x="-720" y="469.9">
      <tspan x="-720" y="469.9">Teacher</tspan>
    </text>
  </g>
  <g>
    <ellipse style="fill: #ffffff" cx="-530.264" cy="300" rx="32.5" ry="20"/>
    <ellipse style="fill: none; fill-opacity:0; stroke-width: 2; stroke: #000000" cx="-530.264" cy="300" rx="32.5" ry="20"/>
    <text font-size="12.8" style="fill: #000000;text-anchor:middle;font-family:sans-serif;font-style:normal;font-weight:normal" x="-530.264" y="337.9">
      <tspan x="-530.264" y="337.9">Edit Domain</tspan>
    </text>
  </g>
  <line style="fill: none; fill-opacity:0; stroke-width: 2; stroke: #000000" x1="-694.002" y1="403.557" x2="-570.495" y2="325.444"/>
  <g>
    <ellipse style="fill: #ffffff" cx="-270.183" cy="160" rx="32.5" ry="20"/>
    <ellipse style="fill: none; fill-opacity:0; stroke-width: 2; stroke: #000000" cx="-270.183" cy="160" rx="32.5" ry="20"/>
    <text font-size="12.8" style="fill: #000000;text-anchor:middle;font-family:sans-serif;font-style:normal;font-weight:normal" x="-270.183" y="197.9">
      <tspan x="-270.183" y="197.9">Add/Remove</tspan>
      <tspan x="-270.183" y="213.9">Objects/Attributes</tspan>
    </text>
  </g>
  <line style="fill: none; fill-opacity:0; stroke-width: 2; stroke: #000000" x1="-211.266" y1="160" x2="242.105" y2="160"/>
  <g>
    <ellipse style="fill: #ffffff" cx="85.8" cy="380" rx="32.5" ry="20"/>
    <ellipse style="fill: none; fill-opacity:0; stroke-width: 2; stroke: #000000" cx="85.8" cy="380" rx="32.5" ry="20"/>
    <text font-size="12.8" style="fill: #000000;text-anchor:middle;font-family:sans-serif;font-style:normal;font-weight:normal" x="85.8" y="417.9">
      <tspan x="85.8" y="417.9">Retreive Objects,</tspan>
      <tspan x="85.8" y="433.9">Attributes, Domains,</tspan>
      <tspan x="85.8" y="449.9">Learning Objects</tspan>
    </text>
  </g>
  <line style="fill: none; fill-opacity:0; stroke-width: 2; stroke: #000000" x1="242.107" y1="202.928" x2="104.315" y2="359.026"/>
  <line style="fill: none; fill-opacity:0; stroke-width: 2; stroke: #000000" x1="123.917" y1="391.777" x2="246.497" y2="429.649"/>
  <g>
    <ellipse style="fill: #ffffff" cx="-270.466" cy="280" rx="32.5" ry="20"/>
    <ellipse style="fill: none; fill-opacity:0; stroke-width: 2; stroke: #000000" cx="-270.466" cy="280" rx="32.5" ry="20"/>
    <text font-size="12.8" style="fill: #000000;text-anchor:middle;font-family:sans-serif;font-style:normal;font-weight:normal" x="-270.466" y="317.9">
      <tspan x="-270.466" y="317.9">Create Objects/</tspan>
      <tspan x="-270.466" y="333.9">Attributes/LearningObjects</tspan>
    </text>
  </g>
  <g>
    <line style="fill: none; fill-opacity:0; stroke-width: 2; stroke: #000000" x1="-478.593" y1="319.935" x2="-288.183" y2="393.396"/>
    <polygon style="fill: none; fill-opacity:0; stroke-width: 2; stroke: #000000" points="-476.794,315.27 -487.923,316.335 -480.393,324.6 "/>
  </g>
  <line style="fill: none; fill-opacity:0; stroke-width: 2; stroke: #000000" x1="-213.02" y1="267.477" x2="242.094" y2="168.264"/>
  <g>
    <ellipse style="fill: #ffffff" cx="-526.914" cy="631.892" rx="32.5" ry="20"/>
    <ellipse style="fill: none; fill-opacity:0; stroke-width: 2; stroke: #000000" cx="-526.914" cy="631.892" rx="32.5" ry="20"/>
    <text font-size="12.8" style="fill: #000000;text-anchor:middle;font-family:sans-serif;font-style:normal;font-weight:normal" x="-526.914" y="669.792">
      <tspan x="-526.914" y="669.792">Save Domain</tspan>
    </text>
  </g>
  <g>
    <line style="fill: none; fill-opacity:0; stroke-width: 2; stroke: #000000" x1="-480.676" y1="341.911" x2="-271.871" y2="518.391"/>
    <polygon style="fill: #ffffff" points="-477.449,338.092 -488.314,335.456 -483.904,345.73 "/>
    <polygon style="fill: none; fill-opacity:0; stroke-width: 2; stroke: #000000" points="-477.449,338.092 -488.314,335.456 -483.904,345.73 "/>
  </g>
  <g>
    <ellipse style="fill: #ffffff" cx="-527.5" cy="100" rx="32.5" ry="20"/>
    <ellipse style="fill: none; fill-opacity:0; stroke-width: 2; stroke: #000000" cx="-527.5" cy="100" rx="32.5" ry="20"/>
    <text font-size="12.8" style="fill: #000000;text-anchor:middle;font-family:sans-serif;font-style:normal;font-weight:normal" x="-527.5" y="137.9">
      <tspan x="-527.5" y="137.9">Identify</tspan>
    </text>
  </g>
  <line style="fill: none; fill-opacity:0; stroke-width: 2; stroke: #000000" x1="-693.999" y1="376.777" x2="-553.36" y2="142.988"/>
  <line style="fill: none; fill-opacity:0; stroke-width: 2; stroke: #000000" x1="-693.996" y1="448.536" x2="-546.006" y2="610.941"/>
  <g>
    <ellipse style="fill: #ffffff" cx="-221.65" cy="840" rx="32.5" ry="20"/>
    <ellipse style="fill: none; fill-opacity:0; stroke-width: 2; stroke: #000000" cx="-221.65" cy="840" rx="32.5" ry="20"/>
    <text font-size="12.8" style="fill: #000000;text-anchor:middle;font-family:sans-serif;font-style:normal;font-weight:normal" x="-221.65" y="877.9">
      <tspan x="-221.65" y="877.9">Persistently store</tspan>
      <tspan x="-221.65" y="893.9">Objects/Attributes in Database</tspan>
    </text>
  </g>
  <g>
    <line style="fill: none; fill-opacity:0; stroke-width: 2; stroke: #000000" x1="-483.306" y1="661.621" x2="-256.144" y2="816.485"/>
    <polyline style="fill: none; fill-opacity:0; stroke-width: 2; stroke: #000000" points="-265.375,816.243 -254.296,817.744 -259.742,807.98 "/>
  </g>
  <g>
    <line style="fill: none; fill-opacity:0; stroke-width: 2; stroke: #000000" x1="249.525" y1="840" x2="-162.309" y2="840"/>
    <polyline style="fill: none; fill-opacity:0; stroke-width: 2; stroke: #000000" points="241.761,845 251.761,840 241.761,835 "/>
  </g>
  <g>
    <ellipse style="fill: #ffffff" cx="-111.875" cy="680" rx="32.5" ry="20"/>
    <ellipse style="fill: none; fill-opacity:0; stroke-width: 2; stroke: #000000" cx="-111.875" cy="680" rx="32.5" ry="20"/>
    <text font-size="12.8" style="fill: #000000;text-anchor:middle;font-family:sans-serif;font-style:normal;font-weight:normal" x="-111.875" y="717.9">
      <tspan x="-111.875" y="717.9">Create Domain</tspan>
    </text>
  </g>
  <line style="fill: none; fill-opacity:0; stroke-width: 2; stroke: #000000" x1="246.503" y1="680" x2="-62.771" y2="680"/>
  <g>
    <line style="fill: none; fill-opacity:0; stroke-width: 2; stroke: #000000" x1="-207.258" y1="819.023" x2="-143.899" y2="726.676"/>
    <polyline style="fill: none; fill-opacity:0; stroke-width: 2; stroke: #000000" points="-144.169,735.907 -142.634,724.832 -152.414,730.249 "/>
  </g>
  <g>
    <ellipse style="fill: #ffffff" cx="62.25" cy="780" rx="32.5" ry="20"/>
    <ellipse style="fill: none; fill-opacity:0; stroke-width: 2; stroke: #000000" cx="62.25" cy="780" rx="32.5" ry="20"/>
    <text font-size="12.8" style="fill: #000000;text-anchor:middle;font-family:sans-serif;font-style:normal;font-weight:normal" x="62.25" y="817.9">
      <tspan x="62.25" y="817.9">Persistently store Domain</tspan>
    </text>
  </g>
  <g>
    <line style="fill: none; fill-opacity:0; stroke-width: 2; stroke: #000000" x1="-62.8173" y1="708.174" x2="21.8018" y2="756.771"/>
    <polyline style="fill: none; fill-opacity:0; stroke-width: 2; stroke: #000000" points="12.5791,757.24 23.7409,757.884 17.5593,748.568 "/>
  </g>
  <g>
    <line style="fill: none; fill-opacity:0; stroke-width: 2; stroke: #000000" x1="249.686" y1="831.647" x2="106.885" y2="792.299"/>
    <polyline style="fill: none; fill-opacity:0; stroke-width: 2; stroke: #000000" points="240.873,834.405 251.842,832.241 243.529,824.764 "/>
  </g>
  <g>
    <polyline style="fill: none; fill-opacity:0; stroke-width: 2; stroke: #a52a2a" points="152.607,380 380,380 380,840 309.472,840 "/>
    <polyline style="fill: none; fill-opacity:0; stroke-width: 2; stroke: #a52a2a" points="317.236,835 307.236,840 317.236,845 "/>
  </g>
  <g>
    <ellipse style="fill: #ffffff" cx="-523.825" cy="480" rx="32.5" ry="20"/>
    <ellipse style="fill: none; fill-opacity:0; stroke-width: 2; stroke: #000000" cx="-523.825" cy="480" rx="32.5" ry="20"/>
    <text font-size="12.8" style="fill: #000000;text-anchor:middle;font-family:sans-serif;font-style:normal;font-weight:normal" x="-523.825" y="517.9">
      <tspan x="-523.825" y="517.9">Edit Lattice</tspan>
    </text>
  </g>
  <g>
    <ellipse style="fill: #ffffff" cx="-269.561" cy="640" rx="32.5" ry="20"/>
    <ellipse style="fill: none; fill-opacity:0; stroke-width: 2; stroke: #000000" cx="-269.561" cy="640" rx="32.5" ry="20"/>
    <text font-size="12.8" style="fill: #000000;text-anchor:middle;font-family:sans-serif;font-style:normal;font-weight:normal" x="-269.561" y="677.9">
      <tspan x="-269.561" y="677.9">Edit Concept</tspan>
    </text>
  </g>
  <line style="fill: none; fill-opacity:0; stroke-width: 2; stroke: #000000" x1="-694.017" y1="427.947" x2="-561.003" y2="468.629"/>
  <g>
    <line style="fill: none; fill-opacity:0; stroke-width: 2; stroke: #000000" x1="-486.672" y1="503.379" x2="-306.681" y2="616.642"/>
    <polyline style="fill: none; fill-opacity:0; stroke-width: 2; stroke: #000000" points="-315.915,616.738 -304.788,617.833 -310.589,608.275 "/>
  </g>
  <line style="fill: none; fill-opacity:0; stroke-width: 2; stroke: #000000" x1="246.52" y1="668.506" x2="94.9482" y2="616.47"/>
  <g>
    <ellipse style="fill: #ffffff" cx="46.975" cy="600" rx="32.5" ry="20"/>
    <ellipse style="fill: none; fill-opacity:0; stroke-width: 2; stroke: #000000" cx="46.975" cy="600" rx="32.5" ry="20"/>
    <text font-size="12.8" style="fill: #000000;text-anchor:middle;font-family:sans-serif;font-style:normal;font-weight:normal" x="46.975" y="637.9">
      <tspan x="46.975" y="637.9">Update Lattice</tspan>
    </text>
  </g>
  <g>
    <line style="fill: none; fill-opacity:0; stroke-width: 2; stroke: #000000" x1="-227.627" y1="634.701" x2="-5.41365" y2="606.62"/>
    <polyline style="fill: none; fill-opacity:0; stroke-width: 2; stroke: #000000" points="-12.4895,612.554 -3.19523,606.34 -13.7432,602.633 "/>
  </g>
  <polyline style="fill: none; fill-opacity:0; stroke-width: 2; stroke: #a52a2a" points="94.9551,600 380,600 380,840 305,840 "/>
  <polyline style="fill: none; fill-opacity:0; stroke-width: 2; stroke: #000000" points="246.52,462.988 77.5254,579.023 "/>
  <g>
    <ellipse style="fill: #a52a2a" cx="380" cy="600.24" rx="2" ry="2"/>
    <ellipse style="fill: none; fill-opacity:0; stroke-width: 2; stroke: #a52a2a" cx="380" cy="600.24" rx="2" ry="2"/>
    <ellipse style="fill: none; fill-opacity:0; stroke-width: 2; stroke: #a52a2a" cx="380" cy="600.24" rx="2" ry="2"/>
  </g>
  <g>
    <ellipse style="fill: #ffffff" cx="-271.064" cy="400" rx="32.5" ry="20"/>
    <ellipse style="fill: none; fill-opacity:0; stroke-width: 2; stroke: #000000" cx="-271.064" cy="400" rx="32.5" ry="20"/>
    <text font-size="12.8" style="fill: #000000;text-anchor:middle;font-family:sans-serif;font-style:normal;font-weight:normal" x="-271.064" y="437.9">
      <tspan x="-271.064" y="437.9">Map Objects to Attributes</tspan>
    </text>
  </g>
  <g>
    <ellipse style="fill: #ffffff" cx="-269.968" cy="520" rx="32.5" ry="20"/>
    <ellipse style="fill: none; fill-opacity:0; stroke-width: 2; stroke: #000000" cx="-269.968" cy="520" rx="32.5" ry="20"/>
    <text font-size="12.8" style="fill: #000000;text-anchor:middle;font-family:sans-serif;font-style:normal;font-weight:normal" x="-269.968" y="557.9">
      <tspan x="-269.968" y="557.9">Add Learnign Obejcts to</tspan>
      <tspan x="-269.968" y="573.9">Attributes/Objects</tspan>
    </text>
  </g>
  <line style="fill: none; fill-opacity:0; stroke-width: 2; stroke: #000000" x1="-222.866" y1="379.009" x2="242.112" y2="176.501"/>
  <line style="fill: none; fill-opacity:0; stroke-width: 2; stroke: #000000" x1="-237.945" y1="499.038" x2="242.095" y2="184.813"/>
  <g>
    <polyline style="fill: none; fill-opacity:0; stroke-width: 2; stroke: #a52a2a" points="-495,100 380,100 380,840 309.472,840 "/>
    <polyline style="fill: none; fill-opacity:0; stroke-width: 2; stroke: #a52a2a" points="317.236,835 307.236,840 317.236,845 "/>
  </g>
  <g>
    <ellipse style="fill: #a52a2a" cx="380.27" cy="379.73" rx="2" ry="2"/>
    <ellipse style="fill: none; fill-opacity:0; stroke-width: 2; stroke: #a52a2a" cx="380.27" cy="379.73" rx="2" ry="2"/>
    <ellipse style="fill: none; fill-opacity:0; stroke-width: 2; stroke: #a52a2a" cx="380.27" cy="379.73" rx="2" ry="2"/>
  </g>
  <g>
    <line style="fill: none; fill-opacity:0; stroke-width: 2; stroke: #000000" x1="-477.812" y1="295.962" x2="-317.099" y2="283.59"/>
    <polygon style="fill: none; fill-opacity:0; stroke-width: 2; stroke: #000000" points="-478.195,290.977 -487.782,296.73 -477.428,300.947 "/>
  </g>
  <g>
    <line style="fill: none; fill-opacity:0; stroke-width: 2; stroke: #000000" x1="-480.487" y1="273.205" x2="-329.116" y2="191.723"/>
    <polygon style="fill: none; fill-opacity:0; stroke-width: 2; stroke: #000000" points="-482.857,268.803 -489.292,277.945 -478.117,277.608 "/>
  </g>
  <line style="fill: none; fill-opacity:0; stroke-width: 2; stroke: #000000" x1="-192.016" y1="508.661" x2="246.533" y2="444.868"/>
  <polyline style="fill: none; fill-opacity:0; stroke-width: 2; stroke: #000099" points="-496.036,674.887 -320,920 440,920 440,440 313.477,440 "/>
  <g>
    <ellipse style="fill: #ffffff" cx="-527.917" cy="800" rx="32.5" ry="20"/>
    <ellipse style="fill: none; fill-opacity:0; stroke-width: 2; stroke: #000000" cx="-527.917" cy="800" rx="32.5" ry="20"/>
    <text font-size="12.8" style="fill: #000000;text-anchor:middle;font-family:sans-serif;font-style:normal;font-weight:normal" x="-527.917" y="837.9">
      <tspan x="-527.917" y="837.9">Open Domain</tspan>
    </text>
  </g>
  <line style="fill: none; fill-opacity:0; stroke-width: 2; stroke: #000000" x1="-694.008" y1="471.42" x2="-538.527" y2="779.01"/>
  <polyline style="fill: none; fill-opacity:0; stroke-width: 2; stroke: #000099" points="-482.993,825.928 -320,920 440,920 440,440 313.477,440 "/>
  <polyline style="fill: none; fill-opacity:0; stroke-width: 2; stroke: #a52a2a" points="-524.67,842.988 -515.833,960 380,960 380,840 305.989,840 "/>
  <g>
    <ellipse style="fill: #a52a2a" cx="380" cy="840" rx="2" ry="2"/>
    <ellipse style="fill: none; fill-opacity:0; stroke-width: 2; stroke: #a52a2a" cx="380" cy="840" rx="2" ry="2"/>
    <ellipse style="fill: none; fill-opacity:0; stroke-width: 2; stroke: #a52a2a" cx="380" cy="840" rx="2" ry="2"/>
  </g>
  <g>
    <ellipse style="fill: #000099" cx="-320" cy="920" rx="2" ry="2"/>
    <ellipse style="fill: none; fill-opacity:0; stroke-width: 2; stroke: #000099" cx="-320" cy="920" rx="2" ry="2"/>
    <ellipse style="fill: none; fill-opacity:0; stroke-width: 2; stroke: #000099" cx="-320" cy="920" rx="2" ry="2"/>
  </g>
  <line style="fill: none; fill-opacity:0; stroke-width: 2; stroke: #000000" x1="-494.183" y1="102.476" x2="242.125" y2="157.186"/>
</svg>
