<?xml version="1.0" encoding="UTF-8" standalone="no"?>
<!DOCTYPE svg PUBLIC "-//W3C//DTD SVG 1.0//EN" "http://www.w3.org/TR/2001/PR-SVG-20010719/DTD/svg10.dtd">
<svg width="29cm" height="28cm" viewBox="38 38 563 543" xmlns="http://www.w3.org/2000/svg" xmlns:xlink="http://www.w3.org/1999/xlink">
  <rect style="fill: none; fill-opacity:0; stroke-width: 2; stroke: #000000" x="40" y="40" width="560" height="540"/>
  <g>
    <rect style="fill: #ffffff" x="60" y="80" width="100.3" height="36"/>
    <rect style="fill: none; fill-opacity:0; stroke-width: 2; stroke: #000000" x="60" y="80" width="100.3" height="36"/>
    <text font-size="12.8" style="fill: #000000;text-anchor:middle;font-family:sans-serif;font-style:normal;font-weight:normal" x="110.15" y="101.9">
      <tspan x="110.15" y="101.9">:Elgg Plug-In</tspan>
    </text>
    <line style="fill: none; fill-opacity:0; stroke-width: 1; stroke: #000000" x1="70" y1="104.9" x2="150.3" y2="104.9"/>
  </g>
  <g>
    <rect style="fill: #ffffff" x="280" y="80" width="137.8" height="36"/>
    <rect style="fill: none; fill-opacity:0; stroke-width: 2; stroke: #000000" x="280" y="80" width="137.8" height="36"/>
    <text font-size="12.8" style="fill: #000000;text-anchor:middle;font-family:sans-serif;font-style:normal;font-weight:normal" x="348.9" y="101.9">
      <tspan x="348.9" y="101.9">:FCA REST Service</tspan>
    </text>
    <line style="fill: none; fill-opacity:0; stroke-width: 1; stroke: #000000" x1="290" y1="104.9" x2="407.8" y2="104.9"/>
  </g>
  <g>
    <rect style="fill: #ffffff" x="500" y="80" width="72.05" height="36"/>
    <rect style="fill: none; fill-opacity:0; stroke-width: 2; stroke: #000000" x="500" y="80" width="72.05" height="36"/>
    <text font-size="12.8" style="fill: #000000;text-anchor:middle;font-family:sans-serif;font-style:normal;font-weight:normal" x="536.025" y="101.9">
      <tspan x="536.025" y="101.9">:FCA DB</tspan>
    </text>
    <line style="fill: none; fill-opacity:0; stroke-width: 1; stroke: #000000" x1="510" y1="104.9" x2="562.05" y2="104.9"/>
  </g>
  <g>
    <polygon style="fill: #ffffff" points="40,40 180,40 180,50 170,60 40,60 "/>
    <polygon style="fill: none; fill-opacity:0; stroke-width: 2; stroke: #000000" points="40,40 180,40 180,50 170,60 40,60 "/>
  </g>
  <text font-size="12.8" style="fill: #000000;text-anchor:start;font-family:sans-serif;font-style:normal;font-weight:normal" x="40" y="54.45">
    <tspan x="40" y="54.45"> Set LearningObject</tspan>
  </text>
  <g>
    <line style="fill: none; fill-opacity:0; stroke-width: 1; stroke-dasharray: 8; stroke: #000000" x1="110.15" y1="116" x2="110.15" y2="140"/>
    <line style="fill: none; fill-opacity:0; stroke-width: 1; stroke-dasharray: 8; stroke: #000000" x1="110.15" y1="560" x2="110.15" y2="580"/>
    <rect style="fill: #ffffff" x="103.15" y="140" width="14" height="420"/>
    <rect style="fill: none; fill-opacity:0; stroke-width: 2; stroke: #000000" x="103.15" y="140" width="14" height="420"/>
  </g>
  <g>
    <polyline style="fill: none; fill-opacity:0; stroke-width: 2; stroke: #000000" points="117.15,150 160,150 160,180 135.15,180 "/>
    <polygon style="fill: #000000" points="135.15,175 125.15,180 135.15,185 "/>
    <polygon style="fill: none; fill-opacity:0; stroke-width: 2; stroke: #000000" points="135.15,175 125.15,180 135.15,185 "/>
  </g>
  <g>
    <line style="fill: none; fill-opacity:0; stroke-width: 1; stroke-dasharray: 8; stroke: #000000" x1="117.15" y1="160" x2="117.15" y2="180"/>
    <line style="fill: none; fill-opacity:0; stroke-width: 1; stroke-dasharray: 8; stroke: #000000" x1="117.15" y1="540" x2="117.15" y2="540"/>
    <rect style="fill: #ffffff" x="110.15" y="180" width="14" height="360"/>
    <rect style="fill: none; fill-opacity:0; stroke-width: 2; stroke: #000000" x="110.15" y="180" width="14" height="360"/>
  </g>
  <text font-size="12.8" style="fill: #000000;text-anchor:start;font-family:sans-serif;font-style:normal;font-weight:normal" x="160" y="169.865">
    <tspan x="160" y="169.865"> setLearningObject()</tspan>
  </text>
  <rect style="fill: none; fill-opacity:0; stroke-width: 2; stroke: #000000" x="80" y="200" width="260" height="120"/>
  <g>
    <polygon style="fill: #ffffff" points="80,200 130,200 130,210 120,220 80,220 "/>
    <polygon style="fill: none; fill-opacity:0; stroke-width: 2; stroke: #000000" points="80,200 130,200 130,210 120,220 80,220 "/>
  </g>
  <text font-size="12.8" style="fill: #000000;text-anchor:start;font-family:sans-serif;font-style:normal;font-weight:normal" x="80" y="214.45">
    <tspan x="80" y="214.45"> alt</tspan>
  </text>
  <text font-size="12.8" style="fill: #000000;text-anchor:start;font-family:sans-serif;font-style:normal;font-weight:normal" x="140" y="230">
    <tspan x="140" y="230">[learningObjectExists = false]</tspan>
  </text>
  <g>
    <polyline style="fill: none; fill-opacity:0; stroke-width: 2; stroke: #000000" points="124.15,240 170,240 170,270 142.15,270 "/>
    <polygon style="fill: #000000" points="142.15,265 132.15,270 142.15,275 "/>
    <polygon style="fill: none; fill-opacity:0; stroke-width: 2; stroke: #000000" points="142.15,265 132.15,270 142.15,275 "/>
  </g>
  <g>
    <line style="fill: none; fill-opacity:0; stroke-width: 1; stroke-dasharray: 8; stroke: #000000" x1="124.15" y1="230" x2="124.15" y2="270"/>
    <line style="fill: none; fill-opacity:0; stroke-width: 1; stroke-dasharray: 8; stroke: #000000" x1="124.15" y1="310" x2="124.15" y2="320"/>
    <rect style="fill: #ffffff" x="117.15" y="270" width="14" height="40"/>
    <rect style="fill: none; fill-opacity:0; stroke-width: 2; stroke: #000000" x="117.15" y="270" width="14" height="40"/>
  </g>
  <text font-size="12.8" style="fill: #000000;text-anchor:start;font-family:sans-serif;font-style:normal;font-weight:normal" x="170" y="258.998">
    <tspan x="170" y="258.998"> createLearningObject()</tspan>
  </text>
  <g>
    <line style="fill: none; fill-opacity:0; stroke-width: 1; stroke-dasharray: 8; stroke: #000000" x1="124.15" y1="340" x2="124.15" y2="360"/>
    <line style="fill: none; fill-opacity:0; stroke-width: 1; stroke-dasharray: 8; stroke: #000000" x1="124.15" y1="520" x2="124.15" y2="520"/>
    <rect style="fill: #ffffff" x="117.15" y="360" width="14" height="160"/>
    <rect style="fill: none; fill-opacity:0; stroke-width: 2; stroke: #000000" x="117.15" y="360" width="14" height="160"/>
  </g>
  <g>
    <polyline style="fill: none; fill-opacity:0; stroke-width: 2; stroke: #000000" points="124.15,330 170,330 170,360 142.15,360 "/>
    <polygon style="fill: #000000" points="142.15,355 132.15,360 142.15,365 "/>
    <polygon style="fill: none; fill-opacity:0; stroke-width: 2; stroke: #000000" points="142.15,355 132.15,360 142.15,365 "/>
  </g>
  <text font-size="12.8" style="fill: #000000;text-anchor:start;font-family:sans-serif;font-style:normal;font-weight:normal" x="170" y="348.998">
    <tspan x="170" y="348.998"> associateToObject()</tspan>
  </text>
  <rect style="fill: none; fill-opacity:0; stroke-width: 2; stroke: #000000" x="80" y="380" width="460" height="120"/>
  <g>
    <polygon style="fill: #ffffff" points="80,380 130,380 130,390 120,400 80,400 "/>
    <polygon style="fill: none; fill-opacity:0; stroke-width: 2; stroke: #000000" points="80,380 130,380 130,390 120,400 80,400 "/>
  </g>
  <text font-size="12.8" style="fill: #000000;text-anchor:start;font-family:sans-serif;font-style:normal;font-weight:normal" x="80" y="394.45">
    <tspan x="80" y="394.45"> alt</tspan>
  </text>
  <text font-size="12.8" style="fill: #000000;text-anchor:start;font-family:sans-serif;font-style:normal;font-weight:normal" x="140" y="400">
    <tspan x="140" y="400">[learningObjectIsStored = true]</tspan>
  </text>
  <g>
    <line style="fill: none; fill-opacity:0; stroke-width: 1; stroke-dasharray: 8; stroke: #000000" x1="348.9" y1="116" x2="348.9" y2="420"/>
    <line style="fill: none; fill-opacity:0; stroke-width: 1; stroke-dasharray: 8; stroke: #000000" x1="348.9" y1="480" x2="348.9" y2="580"/>
    <rect style="fill: #ffffff" x="341.9" y="420" width="14" height="60"/>
    <rect style="fill: none; fill-opacity:0; stroke-width: 2; stroke: #000000" x="341.9" y="420" width="14" height="60"/>
  </g>
  <g>
    <line style="fill: none; fill-opacity:0; stroke-width: 2; stroke: #000000" x1="335.195" y1="420" x2="131.15" y2="420"/>
    <polyline style="fill: none; fill-opacity:0; stroke-width: 2; stroke: #000000" points="322.547,425 338.547,420 322.547,415 "/>
    <text font-size="12.7998" style="fill: #000000;text-anchor:middle;font-family:sans-serif;font-style:normal;font-weight:normal" x="236.524" y="430">updateObject()</text>
  </g>
  <g>
    <line style="fill: none; fill-opacity:0; stroke-width: 1; stroke-dasharray: 8; stroke: #000000" x1="536.024" y1="116" x2="536.024" y2="430"/>
    <line style="fill: none; fill-opacity:0; stroke-width: 1; stroke-dasharray: 8; stroke: #000000" x1="536.024" y1="470" x2="536.024" y2="580"/>
    <rect style="fill: #ffffff" x="529.024" y="430" width="14" height="40"/>
    <rect style="fill: none; fill-opacity:0; stroke-width: 2; stroke: #000000" x="529.024" y="430" width="14" height="40"/>
  </g>
  <g>
    <line style="fill: none; fill-opacity:0; stroke-width: 2; stroke: #000000" x1="522.319" y1="430" x2="355.9" y2="430"/>
    <polyline style="fill: none; fill-opacity:0; stroke-width: 2; stroke: #000000" points="509.671,435 525.671,430 509.671,425 "/>
    <text font-size="12.7998" style="fill: #000000;text-anchor:middle;font-family:sans-serif;font-style:normal;font-weight:normal" x="442.462" y="440">put()</text>
  </g>
  <g>
    <line style="fill: none; fill-opacity:0; stroke-width: 2; stroke-dasharray: 8; stroke: #000000" x1="392.9" y1="470" x2="529.024" y2="470"/>
    <polygon style="fill: #000000" points="392.9,465 376.9,470 392.9,475 "/>
    <polygon style="fill: none; fill-opacity:0; stroke-width: 2; stroke: #000000" points="392.9,465 376.9,470 392.9,475 "/>
    <text font-size="12.7998" style="fill: #000000;text-anchor:middle;font-family:sans-serif;font-style:normal;font-weight:normal" x="452.462" y="480">Object</text>
  </g>
  <g>
    <line style="fill: none; fill-opacity:0; stroke-width: 2; stroke-dasharray: 8; stroke: #000000" x1="148.15" y1="480" x2="341.9" y2="480"/>
    <polygon style="fill: #000000" points="148.15,475 132.15,480 148.15,485 "/>
    <polygon style="fill: none; fill-opacity:0; stroke-width: 2; stroke: #000000" points="148.15,475 132.15,480 148.15,485 "/>
    <text font-size="12.7998" style="fill: #000000;text-anchor:middle;font-family:sans-serif;font-style:normal;font-weight:normal" x="236.526" y="490">Object</text>
  </g>
</svg>
