<?xml version="1.0" encoding="UTF-8" standalone="no"?>
<!DOCTYPE svg PUBLIC "-//W3C//DTD SVG 1.0//EN" "http://www.w3.org/TR/2001/PR-SVG-20010719/DTD/svg10.dtd">
<svg width="27cm" height="24cm" viewBox="38 18 523 463" xmlns="http://www.w3.org/2000/svg" xmlns:xlink="http://www.w3.org/1999/xlink">
  <rect style="fill: none; fill-opacity:0; stroke-width: 2; stroke: #000000" x="40" y="20" width="520" height="460"/>
  <g>
    <line style="fill: none; fill-opacity:0; stroke-width: 1; stroke-dasharray: 8; stroke: #000000" x1="308.9" y1="180" x2="308.9" y2="200"/>
    <line style="fill: none; fill-opacity:0; stroke-width: 1; stroke-dasharray: 8; stroke: #000000" x1="308.9" y1="260" x2="308.9" y2="464"/>
    <rect style="fill: #ffffff" x="301.9" y="200" width="14" height="60"/>
    <rect style="fill: none; fill-opacity:0; stroke-width: 2; stroke: #000000" x="301.9" y="200" width="14" height="60"/>
  </g>
  <g>
    <rect style="fill: #ffffff" x="240" y="60" width="137.8" height="36"/>
    <rect style="fill: none; fill-opacity:0; stroke-width: 2; stroke: #000000" x="240" y="60" width="137.8" height="36"/>
    <text font-size="12.8" style="fill: #000000;text-anchor:middle;font-family:sans-serif;font-style:normal;font-weight:normal" x="308.9" y="81.9">
      <tspan x="308.9" y="81.9">:FCA REST Service</tspan>
    </text>
    <line style="fill: none; fill-opacity:0; stroke-width: 1; stroke: #000000" x1="250" y1="84.9" x2="367.8" y2="84.9"/>
  </g>
  <g>
    <rect style="fill: #ffffff" x="50" y="60" width="100.3" height="36"/>
    <rect style="fill: none; fill-opacity:0; stroke-width: 2; stroke: #000000" x="50" y="60" width="100.3" height="36"/>
    <text font-size="12.8" style="fill: #000000;text-anchor:middle;font-family:sans-serif;font-style:normal;font-weight:normal" x="100.15" y="81.9">
      <tspan x="100.15" y="81.9">:Elgg Plug-In</tspan>
    </text>
    <line style="fill: none; fill-opacity:0; stroke-width: 1; stroke: #000000" x1="60" y1="84.9" x2="140.3" y2="84.9"/>
  </g>
  <g>
    <line style="fill: none; fill-opacity:0; stroke-width: 2; stroke: #000000" x1="295.195" y1="120" x2="107.15" y2="120"/>
    <polyline style="fill: none; fill-opacity:0; stroke-width: 2; stroke: #000000" points="282.547,125 298.547,120 282.547,115 "/>
    <text font-size="12.7998" style="fill: #000000;text-anchor:middle;font-family:sans-serif;font-style:normal;font-weight:normal" x="204.526" y="130">identfy()</text>
  </g>
  <g>
    <line style="fill: none; fill-opacity:0; stroke-width: 1; stroke-dasharray: 8; stroke: #000000" x1="100.15" y1="96" x2="100.15" y2="120"/>
    <line style="fill: none; fill-opacity:0; stroke-width: 1; stroke-dasharray: 8; stroke: #000000" x1="100.15" y1="460" x2="100.15" y2="480"/>
    <rect style="fill: #ffffff" x="93.15" y="120" width="14" height="340"/>
    <rect style="fill: none; fill-opacity:0; stroke-width: 2; stroke: #000000" x="93.15" y="120" width="14" height="340"/>
  </g>
  <g>
    <line style="fill: none; fill-opacity:0; stroke-width: 2; stroke: #000000" x1="295.195" y1="200" x2="107.15" y2="200"/>
    <polyline style="fill: none; fill-opacity:0; stroke-width: 2; stroke: #000000" points="282.547,205 298.547,200 282.547,195 "/>
    <text font-size="12.7998" style="fill: #000000;text-anchor:middle;font-family:sans-serif;font-style:normal;font-weight:normal" x="204.526" y="210">getAttributes()</text>
  </g>
  <g>
    <line style="fill: none; fill-opacity:0; stroke-width: 2; stroke-dasharray: 8; stroke: #000000" x1="124.15" y1="260" x2="301.9" y2="260"/>
    <polygon style="fill: #000000" points="124.15,255 108.15,260 124.15,265 "/>
    <polygon style="fill: none; fill-opacity:0; stroke-width: 2; stroke: #000000" points="124.15,255 108.15,260 124.15,265 "/>
    <text font-size="12.7998" style="fill: #000000;text-anchor:middle;font-family:sans-serif;font-style:normal;font-weight:normal" x="204.526" y="270">Attributes</text>
  </g>
  <g>
    <line style="fill: none; fill-opacity:0; stroke-width: 2; stroke: #000000" x1="295.195" y1="300" x2="107.15" y2="300"/>
    <polyline style="fill: none; fill-opacity:0; stroke-width: 2; stroke: #000000" points="282.547,305 298.547,300 282.547,295 "/>
    <text font-size="12.7998" style="fill: #000000;text-anchor:middle;font-family:sans-serif;font-style:normal;font-weight:normal" x="204.526" y="310">getObjects()</text>
  </g>
  <g>
    <line style="fill: none; fill-opacity:0; stroke-width: 1; stroke-dasharray: 8; stroke: #000000" x1="308.9" y1="260" x2="308.9" y2="300"/>
    <line style="fill: none; fill-opacity:0; stroke-width: 1; stroke-dasharray: 8; stroke: #000000" x1="308.9" y1="360" x2="308.9" y2="370"/>
    <rect style="fill: #ffffff" x="301.9" y="300" width="14" height="60"/>
    <rect style="fill: none; fill-opacity:0; stroke-width: 2; stroke: #000000" x="301.9" y="300" width="14" height="60"/>
  </g>
  <g>
    <line style="fill: none; fill-opacity:0; stroke-width: 2; stroke-dasharray: 8; stroke: #000000" x1="124.15" y1="360" x2="301.9" y2="360"/>
    <polygon style="fill: #000000" points="124.15,355 108.15,360 124.15,365 "/>
    <polygon style="fill: none; fill-opacity:0; stroke-width: 2; stroke: #000000" points="124.15,355 108.15,360 124.15,365 "/>
    <text font-size="12.7998" style="fill: #000000;text-anchor:middle;font-family:sans-serif;font-style:normal;font-weight:normal" x="204.526" y="370">Objects</text>
  </g>
  <g>
    <line style="fill: none; fill-opacity:0; stroke-width: 2; stroke: #000000" x1="295.195" y1="400" x2="107.15" y2="400"/>
    <polyline style="fill: none; fill-opacity:0; stroke-width: 2; stroke: #000000" points="282.547,405 298.547,400 282.547,395 "/>
    <text font-size="12.7998" style="fill: #000000;text-anchor:middle;font-family:sans-serif;font-style:normal;font-weight:normal" x="204.526" y="410">getLearningObjects()</text>
  </g>
  <g>
    <line style="fill: none; fill-opacity:0; stroke-width: 1; stroke-dasharray: 8; stroke: #000000" x1="308.9" y1="360" x2="308.9" y2="400"/>
    <line style="fill: none; fill-opacity:0; stroke-width: 1; stroke-dasharray: 8; stroke: #000000" x1="308.9" y1="460" x2="308.9" y2="480"/>
    <rect style="fill: #ffffff" x="301.9" y="400" width="14" height="60"/>
    <rect style="fill: none; fill-opacity:0; stroke-width: 2; stroke: #000000" x="301.9" y="400" width="14" height="60"/>
  </g>
  <g>
    <line style="fill: none; fill-opacity:0; stroke-width: 2; stroke-dasharray: 8; stroke: #000000" x1="124.15" y1="460" x2="301.9" y2="460"/>
    <polygon style="fill: #000000" points="124.15,455 108.15,460 124.15,465 "/>
    <polygon style="fill: none; fill-opacity:0; stroke-width: 2; stroke: #000000" points="124.15,455 108.15,460 124.15,465 "/>
    <text font-size="12.7998" style="fill: #000000;text-anchor:middle;font-family:sans-serif;font-style:normal;font-weight:normal" x="204.526" y="470">LearningObjects</text>
  </g>
  <g>
    <g>
      <polygon style="fill: #ffffff" points="40,20 140,20 140,30 130,40 40,40 "/>
      <polygon style="fill: none; fill-opacity:0; stroke-width: 2; stroke: #000000" points="40,20 140,20 140,30 130,40 40,40 "/>
    </g>
    <text font-size="12.8" style="fill: #000000;text-anchor:start;font-family:sans-serif;font-style:normal;font-weight:normal" x="40" y="34.45">
      <tspan x="40" y="34.45"> Initialization</tspan>
    </text>
  </g>
  <g>
    <rect style="fill: #ffffff" x="460" y="60" width="72.05" height="36"/>
    <rect style="fill: none; fill-opacity:0; stroke-width: 2; stroke: #000000" x="460" y="60" width="72.05" height="36"/>
    <text font-size="12.8" style="fill: #000000;text-anchor:middle;font-family:sans-serif;font-style:normal;font-weight:normal" x="496.025" y="81.9">
      <tspan x="496.025" y="81.9">:FCA DB</tspan>
    </text>
    <line style="fill: none; fill-opacity:0; stroke-width: 1; stroke: #000000" x1="470" y1="84.9" x2="522.05" y2="84.9"/>
  </g>
  <g>
    <line style="fill: none; fill-opacity:0; stroke-width: 1; stroke-dasharray: 8; stroke: #000000" x1="308.9" y1="96" x2="308.9" y2="120"/>
    <line style="fill: none; fill-opacity:0; stroke-width: 1; stroke-dasharray: 8; stroke: #000000" x1="308.9" y1="180" x2="308.9" y2="180"/>
    <rect style="fill: #ffffff" x="301.9" y="120" width="14" height="60"/>
    <rect style="fill: none; fill-opacity:0; stroke-width: 2; stroke: #000000" x="301.9" y="120" width="14" height="60"/>
  </g>
  <g>
    <line style="fill: none; fill-opacity:0; stroke-width: 1; stroke-dasharray: 8; stroke: #000000" x1="496.024" y1="96" x2="496.024" y2="130"/>
    <line style="fill: none; fill-opacity:0; stroke-width: 1; stroke-dasharray: 8; stroke: #000000" x1="496.024" y1="170" x2="496.024" y2="180"/>
    <rect style="fill: #ffffff" x="489.024" y="130" width="14" height="40"/>
    <rect style="fill: none; fill-opacity:0; stroke-width: 2; stroke: #000000" x="489.024" y="130" width="14" height="40"/>
  </g>
  <g>
    <line style="fill: none; fill-opacity:0; stroke-width: 2; stroke: #000000" x1="472.024" y1="130" x2="315.9" y2="130"/>
    <polygon style="fill: #000000" points="472.024,135 488.024,130 472.024,125 "/>
    <polygon style="fill: none; fill-opacity:0; stroke-width: 2; stroke: #000000" points="472.024,135 488.024,130 472.024,125 "/>
  </g>
  <g>
    <line style="fill: none; fill-opacity:0; stroke-width: 1; stroke-dasharray: 8; stroke: #000000" x1="496.024" y1="170" x2="496.024" y2="210"/>
    <line style="fill: none; fill-opacity:0; stroke-width: 1; stroke-dasharray: 8; stroke: #000000" x1="496.024" y1="250" x2="496.024" y2="250"/>
    <rect style="fill: #ffffff" x="489.024" y="210" width="14" height="40"/>
    <rect style="fill: none; fill-opacity:0; stroke-width: 2; stroke: #000000" x="489.024" y="210" width="14" height="40"/>
  </g>
  <g>
    <line style="fill: none; fill-opacity:0; stroke-width: 2; stroke: #000000" x1="472.024" y1="210" x2="315.9" y2="210"/>
    <polygon style="fill: #000000" points="472.024,215 488.024,210 472.024,205 "/>
    <polygon style="fill: none; fill-opacity:0; stroke-width: 2; stroke: #000000" points="472.024,215 488.024,210 472.024,205 "/>
    <text font-size="12.7998" style="fill: #000000;text-anchor:middle;font-family:sans-serif;font-style:normal;font-weight:normal" x="402.462" y="220">get()</text>
  </g>
  <g>
    <line style="fill: none; fill-opacity:0; stroke-width: 2; stroke-dasharray: 8; stroke: #000000" x1="332.9" y1="250" x2="489.024" y2="250"/>
    <polygon style="fill: #000000" points="332.9,245 316.9,250 332.9,255 "/>
    <polygon style="fill: none; fill-opacity:0; stroke-width: 2; stroke: #000000" points="332.9,245 316.9,250 332.9,255 "/>
    <text font-size="12.7998" style="fill: #000000;text-anchor:middle;font-family:sans-serif;font-style:normal;font-weight:normal" x="402.462" y="260">Attributes</text>
  </g>
  <g>
    <line style="fill: none; fill-opacity:0; stroke-width: 1; stroke-dasharray: 8; stroke: #000000" x1="496.024" y1="250" x2="496.024" y2="310"/>
    <line style="fill: none; fill-opacity:0; stroke-width: 1; stroke-dasharray: 8; stroke: #000000" x1="496.024" y1="350" x2="496.024" y2="360"/>
    <rect style="fill: #ffffff" x="489.024" y="310" width="14" height="40"/>
    <rect style="fill: none; fill-opacity:0; stroke-width: 2; stroke: #000000" x="489.024" y="310" width="14" height="40"/>
  </g>
  <g>
    <line style="fill: none; fill-opacity:0; stroke-width: 2; stroke: #000000" x1="472.024" y1="310" x2="315.9" y2="310"/>
    <polygon style="fill: #000000" points="472.024,315 488.024,310 472.024,305 "/>
    <polygon style="fill: none; fill-opacity:0; stroke-width: 2; stroke: #000000" points="472.024,315 488.024,310 472.024,305 "/>
    <text font-size="12.7998" style="fill: #000000;text-anchor:middle;font-family:sans-serif;font-style:normal;font-weight:normal" x="402.462" y="320">get()</text>
  </g>
  <g>
    <line style="fill: none; fill-opacity:0; stroke-width: 2; stroke-dasharray: 8; stroke: #000000" x1="332.9" y1="350" x2="489.024" y2="350"/>
    <polygon style="fill: #000000" points="332.9,345 316.9,350 332.9,355 "/>
    <polygon style="fill: none; fill-opacity:0; stroke-width: 2; stroke: #000000" points="332.9,345 316.9,350 332.9,355 "/>
    <text font-size="12.7998" style="fill: #000000;text-anchor:middle;font-family:sans-serif;font-style:normal;font-weight:normal" x="402.462" y="360">Objects</text>
  </g>
  <g>
    <line style="fill: none; fill-opacity:0; stroke-width: 1; stroke-dasharray: 8; stroke: #000000" x1="496.024" y1="350" x2="496.024" y2="410"/>
    <line style="fill: none; fill-opacity:0; stroke-width: 1; stroke-dasharray: 8; stroke: #000000" x1="496.024" y1="450" x2="496.024" y2="480"/>
    <rect style="fill: #ffffff" x="489.024" y="410" width="14" height="40"/>
    <rect style="fill: none; fill-opacity:0; stroke-width: 2; stroke: #000000" x="489.024" y="410" width="14" height="40"/>
  </g>
  <g>
    <line style="fill: none; fill-opacity:0; stroke-width: 2; stroke: #000000" x1="472.024" y1="410" x2="315.9" y2="410"/>
    <polygon style="fill: #000000" points="472.024,415 488.024,410 472.024,405 "/>
    <polygon style="fill: none; fill-opacity:0; stroke-width: 2; stroke: #000000" points="472.024,415 488.024,410 472.024,405 "/>
    <text font-size="12.7998" style="fill: #000000;text-anchor:middle;font-family:sans-serif;font-style:normal;font-weight:normal" x="402.462" y="420">get()</text>
  </g>
  <g>
    <line style="fill: none; fill-opacity:0; stroke-width: 2; stroke-dasharray: 8; stroke: #000000" x1="332.9" y1="450" x2="489.024" y2="450"/>
    <polygon style="fill: #000000" points="332.9,445 316.9,450 332.9,455 "/>
    <polygon style="fill: none; fill-opacity:0; stroke-width: 2; stroke: #000000" points="332.9,445 316.9,450 332.9,455 "/>
    <text font-size="12.7998" style="fill: #000000;text-anchor:middle;font-family:sans-serif;font-style:normal;font-weight:normal" x="402.462" y="460">LearningObjects</text>
  </g>
</svg>
