<?xml version="1.0" encoding="UTF-8" standalone="no"?>
<!DOCTYPE svg PUBLIC "-//W3C//DTD SVG 1.0//EN" "http://www.w3.org/TR/2001/PR-SVG-20010719/DTD/svg10.dtd">
<svg width="48cm" height="25cm" viewBox="134 -95 960 484" xmlns="http://www.w3.org/2000/svg" xmlns:xlink="http://www.w3.org/1999/xlink">
  <g>
    <ellipse style="fill: #ffffff" cx="1060" cy="104" rx="6" ry="6"/>
    <ellipse style="fill: none; fill-opacity:0; stroke-width: 2; stroke: #000000" cx="1060" cy="104" rx="6" ry="6"/>
    <line style="fill: none; fill-opacity:0; stroke-width: 2; stroke: #000000" x1="1036" y1="116" x2="1084" y2="116"/>
    <line style="fill: none; fill-opacity:0; stroke-width: 2; stroke: #000000" x1="1060" y1="110" x2="1060" y2="140"/>
    <line style="fill: none; fill-opacity:0; stroke-width: 2; stroke: #000000" x1="1060" y1="140" x2="1036" y2="166"/>
    <line style="fill: none; fill-opacity:0; stroke-width: 2; stroke: #000000" x1="1060" y1="140" x2="1084" y2="166"/>
    <text font-size="12.8" style="fill: #000000;text-anchor:middle;font-family:sans-serif;font-style:normal;font-weight:normal" x="1060" y="189.9">
      <tspan x="1060" y="189.9">FCA DB</tspan>
    </text>
  </g>
  <g>
    <ellipse style="fill: #ffffff" cx="1060" cy="-76" rx="6" ry="6"/>
    <ellipse style="fill: none; fill-opacity:0; stroke-width: 2; stroke: #000000" cx="1060" cy="-76" rx="6" ry="6"/>
    <line style="fill: none; fill-opacity:0; stroke-width: 2; stroke: #000000" x1="1036" y1="-64" x2="1084" y2="-64"/>
    <line style="fill: none; fill-opacity:0; stroke-width: 2; stroke: #000000" x1="1060" y1="-70" x2="1060" y2="-40"/>
    <line style="fill: none; fill-opacity:0; stroke-width: 2; stroke: #000000" x1="1060" y1="-40" x2="1036" y2="-14"/>
    <line style="fill: none; fill-opacity:0; stroke-width: 2; stroke: #000000" x1="1060" y1="-40" x2="1084" y2="-14"/>
    <text font-size="12.8" style="fill: #000000;text-anchor:middle;font-family:sans-serif;font-style:normal;font-weight:normal" x="1060" y="9.9">
      <tspan x="1060" y="9.9">FCA REST</tspan>
      <tspan x="1060" y="25.9">Interface</tspan>
    </text>
  </g>
  <g>
    <ellipse style="fill: #ffffff" cx="1060" cy="284" rx="6" ry="6"/>
    <ellipse style="fill: none; fill-opacity:0; stroke-width: 2; stroke: #000000" cx="1060" cy="284" rx="6" ry="6"/>
    <line style="fill: none; fill-opacity:0; stroke-width: 2; stroke: #000000" x1="1036" y1="296" x2="1084" y2="296"/>
    <line style="fill: none; fill-opacity:0; stroke-width: 2; stroke: #000000" x1="1060" y1="290" x2="1060" y2="320"/>
    <line style="fill: none; fill-opacity:0; stroke-width: 2; stroke: #000000" x1="1060" y1="320" x2="1036" y2="346"/>
    <line style="fill: none; fill-opacity:0; stroke-width: 2; stroke: #000000" x1="1060" y1="320" x2="1084" y2="346"/>
    <text font-size="12.8" style="fill: #000000;text-anchor:middle;font-family:sans-serif;font-style:normal;font-weight:normal" x="1060" y="369.9">
      <tspan x="1060" y="369.9">FCA BL</tspan>
      <tspan x="1060" y="385.9">(Colibri)</tspan>
    </text>
  </g>
  <g>
    <ellipse style="fill: #ffffff" cx="160" cy="104" rx="6" ry="6"/>
    <ellipse style="fill: none; fill-opacity:0; stroke-width: 2; stroke: #000000" cx="160" cy="104" rx="6" ry="6"/>
    <line style="fill: none; fill-opacity:0; stroke-width: 2; stroke: #000000" x1="136" y1="116" x2="184" y2="116"/>
    <line style="fill: none; fill-opacity:0; stroke-width: 2; stroke: #000000" x1="160" y1="110" x2="160" y2="140"/>
    <line style="fill: none; fill-opacity:0; stroke-width: 2; stroke: #000000" x1="160" y1="140" x2="136" y2="166"/>
    <line style="fill: none; fill-opacity:0; stroke-width: 2; stroke: #000000" x1="160" y1="140" x2="184" y2="166"/>
    <text font-size="12.8" style="fill: #000000;text-anchor:middle;font-family:sans-serif;font-style:normal;font-weight:normal" x="160" y="189.9">
      <tspan x="160" y="189.9">Teacher</tspan>
    </text>
  </g>
  <g>
    <ellipse style="fill: #ffffff" cx="356.175" cy="140" rx="32.5" ry="20"/>
    <ellipse style="fill: none; fill-opacity:0; stroke-width: 2; stroke: #000000" cx="356.175" cy="140" rx="32.5" ry="20"/>
    <text font-size="12.8" style="fill: #000000;text-anchor:middle;font-family:sans-serif;font-style:normal;font-weight:normal" x="356.175" y="177.9">
      <tspan x="356.175" y="177.9">Edit Lattice</tspan>
    </text>
  </g>
  <g>
    <ellipse style="fill: #ffffff" cx="580.925" cy="140" rx="32.5" ry="20"/>
    <ellipse style="fill: none; fill-opacity:0; stroke-width: 2; stroke: #000000" cx="580.925" cy="140" rx="32.5" ry="20"/>
    <text font-size="12.8" style="fill: #000000;text-anchor:middle;font-family:sans-serif;font-style:normal;font-weight:normal" x="580.925" y="177.9">
      <tspan x="580.925" y="177.9">Edit Concept</tspan>
    </text>
  </g>
  <line style="fill: none; fill-opacity:0; stroke-width: 2; stroke: #000000" x1="185.983" y1="140" x2="318.997" y2="140"/>
  <g>
    <line style="fill: none; fill-opacity:0; stroke-width: 2; stroke: #000000" x1="393.357" y1="140" x2="534.525" y2="140"/>
    <polyline style="fill: none; fill-opacity:0; stroke-width: 2; stroke: #000000" points="526.761,145 536.761,140 526.761,135 "/>
  </g>
  <line style="fill: none; fill-opacity:0; stroke-width: 2; stroke: #000000" x1="1026.5" y1="296.171" x2="854.95" y2="174.129"/>
  <g>
    <ellipse style="fill: #ffffff" cx="806.975" cy="140" rx="32.5" ry="20"/>
    <ellipse style="fill: none; fill-opacity:0; stroke-width: 2; stroke: #000000" cx="806.975" cy="140" rx="32.5" ry="20"/>
    <text font-size="12.8" style="fill: #000000;text-anchor:middle;font-family:sans-serif;font-style:normal;font-weight:normal" x="806.975" y="177.9">
      <tspan x="806.975" y="177.9">Update Lattice</tspan>
    </text>
  </g>
  <g>
    <line style="fill: none; fill-opacity:0; stroke-width: 2; stroke: #000000" x1="622.647" y1="140" x2="754.531" y2="140"/>
    <polyline style="fill: none; fill-opacity:0; stroke-width: 2; stroke: #000000" points="746.767,145 756.767,140 746.767,135 "/>
  </g>
  <polyline style="fill: none; fill-opacity:0; stroke-width: 2; stroke: #000000" points="1026.5,-16.1707 836.442,119.038 "/>
  <line style="fill: none; fill-opacity:0; stroke-width: 2; stroke: #000000" x1="854.95" y1="140" x2="1034.02" y2="140"/>
</svg>
