<?xml version="1.0" encoding="UTF-8" standalone="no"?>
<!DOCTYPE svg PUBLIC "-//W3C//DTD SVG 1.0//EN" "http://www.w3.org/TR/2001/PR-SVG-20010719/DTD/svg10.dtd">
<svg width="47cm" height="24cm" viewBox="54 -55 940 470" xmlns="http://www.w3.org/2000/svg" xmlns:xlink="http://www.w3.org/1999/xlink">
  <g>
    <ellipse style="fill: #ffffff" cx="498.91" cy="324" rx="6" ry="6"/>
    <ellipse style="fill: none; fill-opacity:0; stroke-width: 2; stroke: #000000" cx="498.91" cy="324" rx="6" ry="6"/>
    <line style="fill: none; fill-opacity:0; stroke-width: 2; stroke: #000000" x1="474.91" y1="336" x2="522.91" y2="336"/>
    <line style="fill: none; fill-opacity:0; stroke-width: 2; stroke: #000000" x1="498.91" y1="330" x2="498.91" y2="360"/>
    <line style="fill: none; fill-opacity:0; stroke-width: 2; stroke: #000000" x1="498.91" y1="360" x2="474.91" y2="386"/>
    <line style="fill: none; fill-opacity:0; stroke-width: 2; stroke: #000000" x1="498.91" y1="360" x2="522.91" y2="386"/>
    <text font-size="12.8" style="fill: #000000;text-anchor:middle;font-family:sans-serif;font-style:normal;font-weight:normal" x="498.91" y="409.9">
      <tspan x="498.91" y="409.9">FCA DB</tspan>
    </text>
  </g>
  <g>
    <ellipse style="fill: #ffffff" cx="960" cy="-36" rx="6" ry="6"/>
    <ellipse style="fill: none; fill-opacity:0; stroke-width: 2; stroke: #000000" cx="960" cy="-36" rx="6" ry="6"/>
    <line style="fill: none; fill-opacity:0; stroke-width: 2; stroke: #000000" x1="936" y1="-24" x2="984" y2="-24"/>
    <line style="fill: none; fill-opacity:0; stroke-width: 2; stroke: #000000" x1="960" y1="-30" x2="960" y2="-2.22045e-15"/>
    <line style="fill: none; fill-opacity:0; stroke-width: 2; stroke: #000000" x1="960" y1="-2.22045e-15" x2="936" y2="26"/>
    <line style="fill: none; fill-opacity:0; stroke-width: 2; stroke: #000000" x1="960" y1="-2.22045e-15" x2="984" y2="26"/>
    <text font-size="12.8" style="fill: #000000;text-anchor:middle;font-family:sans-serif;font-style:normal;font-weight:normal" x="960" y="49.9">
      <tspan x="960" y="49.9">FCA REST</tspan>
      <tspan x="960" y="65.9">Interface</tspan>
    </text>
  </g>
  <g>
    <ellipse style="fill: #ffffff" cx="960" cy="124" rx="6" ry="6"/>
    <ellipse style="fill: none; fill-opacity:0; stroke-width: 2; stroke: #000000" cx="960" cy="124" rx="6" ry="6"/>
    <line style="fill: none; fill-opacity:0; stroke-width: 2; stroke: #000000" x1="936" y1="136" x2="984" y2="136"/>
    <line style="fill: none; fill-opacity:0; stroke-width: 2; stroke: #000000" x1="960" y1="130" x2="960" y2="160"/>
    <line style="fill: none; fill-opacity:0; stroke-width: 2; stroke: #000000" x1="960" y1="160" x2="936" y2="186"/>
    <line style="fill: none; fill-opacity:0; stroke-width: 2; stroke: #000000" x1="960" y1="160" x2="984" y2="186"/>
    <text font-size="12.8" style="fill: #000000;text-anchor:middle;font-family:sans-serif;font-style:normal;font-weight:normal" x="960" y="209.9">
      <tspan x="960" y="209.9">FCA BL</tspan>
      <tspan x="960" y="225.9">(Colibri)</tspan>
    </text>
  </g>
  <g>
    <ellipse style="fill: #ffffff" cx="80" cy="124" rx="6" ry="6"/>
    <ellipse style="fill: none; fill-opacity:0; stroke-width: 2; stroke: #000000" cx="80" cy="124" rx="6" ry="6"/>
    <line style="fill: none; fill-opacity:0; stroke-width: 2; stroke: #000000" x1="56" y1="136" x2="104" y2="136"/>
    <line style="fill: none; fill-opacity:0; stroke-width: 2; stroke: #000000" x1="80" y1="130" x2="80" y2="160"/>
    <line style="fill: none; fill-opacity:0; stroke-width: 2; stroke: #000000" x1="80" y1="160" x2="56" y2="186"/>
    <line style="fill: none; fill-opacity:0; stroke-width: 2; stroke: #000000" x1="80" y1="160" x2="104" y2="186"/>
    <text font-size="12.8" style="fill: #000000;text-anchor:middle;font-family:sans-serif;font-style:normal;font-weight:normal" x="80" y="209.9">
      <tspan x="80" y="209.9">Teacher</tspan>
    </text>
  </g>
  <g>
    <ellipse style="fill: #ffffff" cx="302.6" cy="160" rx="32.5" ry="20"/>
    <ellipse style="fill: none; fill-opacity:0; stroke-width: 2; stroke: #000000" cx="302.6" cy="160" rx="32.5" ry="20"/>
    <text font-size="12.8" style="fill: #000000;text-anchor:middle;font-family:sans-serif;font-style:normal;font-weight:normal" x="302.6" y="197.9">
      <tspan x="302.6" y="197.9">Save Domain</tspan>
    </text>
  </g>
  <line style="fill: none; fill-opacity:0; stroke-width: 2; stroke: #000000" x1="105.991" y1="160" x2="259.001" y2="160"/>
  <g>
    <ellipse style="fill: #ffffff" cx="498.35" cy="160" rx="32.5" ry="20"/>
    <ellipse style="fill: none; fill-opacity:0; stroke-width: 2; stroke: #000000" cx="498.35" cy="160" rx="32.5" ry="20"/>
    <text font-size="12.8" style="fill: #000000;text-anchor:middle;font-family:sans-serif;font-style:normal;font-weight:normal" x="498.35" y="197.9">
      <tspan x="498.35" y="197.9">Persistently store</tspan>
      <tspan x="498.35" y="213.9">Objects/Attributes in Database</tspan>
    </text>
  </g>
  <g>
    <line style="fill: none; fill-opacity:0; stroke-width: 2; stroke: #000000" x1="346.197" y1="160" x2="444.545" y2="160"/>
    <polyline style="fill: none; fill-opacity:0; stroke-width: 2; stroke: #000000" points="436.781,165 446.781,160 436.781,155 "/>
  </g>
  <g>
    <line style="fill: none; fill-opacity:0; stroke-width: 2; stroke: #000000" x1="498.743" y1="300.535" x2="498.515" y2="218.997"/>
    <polyline style="fill: none; fill-opacity:0; stroke-width: 2; stroke: #000000" points="493.722,292.785 498.75,302.771 503.722,292.757 "/>
  </g>
  <g>
    <ellipse style="fill: #ffffff" cx="768.125" cy="160" rx="32.5" ry="20"/>
    <ellipse style="fill: none; fill-opacity:0; stroke-width: 2; stroke: #000000" cx="768.125" cy="160" rx="32.5" ry="20"/>
    <text font-size="12.8" style="fill: #000000;text-anchor:middle;font-family:sans-serif;font-style:normal;font-weight:normal" x="768.125" y="197.9">
      <tspan x="768.125" y="197.9">Create Domain</tspan>
    </text>
  </g>
  <line style="fill: none; fill-opacity:0; stroke-width: 2; stroke: #000000" x1="926.494" y1="160" x2="817.241" y2="160"/>
  <g>
    <line style="fill: none; fill-opacity:0; stroke-width: 2; stroke: #000000" x1="547.688" y1="160" x2="714.585" y2="160"/>
    <polyline style="fill: none; fill-opacity:0; stroke-width: 2; stroke: #000000" points="706.821,165 716.821,160 706.821,155 "/>
  </g>
  <g>
    <ellipse style="fill: #ffffff" cx="767.702" cy="360" rx="32.5" ry="20"/>
    <ellipse style="fill: none; fill-opacity:0; stroke-width: 2; stroke: #000000" cx="767.702" cy="360" rx="32.5" ry="20"/>
    <text font-size="12.8" style="fill: #000000;text-anchor:middle;font-family:sans-serif;font-style:normal;font-weight:normal" x="767.702" y="397.9">
      <tspan x="767.702" y="397.9">Persistently store Domain</tspan>
    </text>
  </g>
  <g>
    <line style="fill: none; fill-opacity:0; stroke-width: 2; stroke: #000000" x1="768.034" y1="202.993" x2="767.756" y2="334.526"/>
    <polyline style="fill: none; fill-opacity:0; stroke-width: 2; stroke: #000000" points="762.772,326.751 767.751,336.762 772.772,326.772 "/>
  </g>
  <g>
    <line style="fill: none; fill-opacity:0; stroke-width: 2; stroke: #000000" x1="529.385" y1="360" x2="684.451" y2="360"/>
    <polyline style="fill: none; fill-opacity:0; stroke-width: 2; stroke: #000000" points="537.149,355 527.149,360 537.149,365 "/>
  </g>
  <line style="fill: none; fill-opacity:0; stroke-width: 2; stroke: #000000" x1="558.874" y1="139.023" x2="926.512" y2="11.6064"/>
</svg>
