<?xml version="1.0" encoding="UTF-8" standalone="no"?>
<!DOCTYPE svg PUBLIC "-//W3C//DTD SVG 1.0//EN" "http://www.w3.org/TR/2001/PR-SVG-20010719/DTD/svg10.dtd">
<svg width="68cm" height="23cm" viewBox="114 64 1352 445" xmlns="http://www.w3.org/2000/svg" xmlns:xlink="http://www.w3.org/1999/xlink">
  <g>
    <ellipse style="fill: #ffffff" cx="1000" cy="204" rx="6" ry="6"/>
    <ellipse style="fill: none; fill-opacity:0; stroke-width: 2; stroke: #000000" cx="1000" cy="204" rx="6" ry="6"/>
    <line style="fill: none; fill-opacity:0; stroke-width: 2; stroke: #000000" x1="976.001" y1="216" x2="1024" y2="216"/>
    <line style="fill: none; fill-opacity:0; stroke-width: 2; stroke: #000000" x1="1000" y1="210" x2="1000" y2="240"/>
    <line style="fill: none; fill-opacity:0; stroke-width: 2; stroke: #000000" x1="1000" y1="240" x2="976.001" y2="266"/>
    <line style="fill: none; fill-opacity:0; stroke-width: 2; stroke: #000000" x1="1000" y1="240" x2="1024" y2="266"/>
    <text font-size="12.8" style="fill: #000000;text-anchor:middle;font-family:sans-serif;font-style:normal;font-weight:normal" x="1000" y="289.9">
      <tspan x="1000" y="289.9">elgg Plug-In</tspan>
      <tspan x="1000" y="305.9">Logic</tspan>
    </text>
  </g>
  <g>
    <ellipse style="fill: #ffffff" cx="1440" cy="284" rx="6" ry="6"/>
    <ellipse style="fill: none; fill-opacity:0; stroke-width: 2; stroke: #000000" cx="1440" cy="284" rx="6" ry="6"/>
    <line style="fill: none; fill-opacity:0; stroke-width: 2; stroke: #000000" x1="1416" y1="296" x2="1464" y2="296"/>
    <line style="fill: none; fill-opacity:0; stroke-width: 2; stroke: #000000" x1="1440" y1="290" x2="1440" y2="320"/>
    <line style="fill: none; fill-opacity:0; stroke-width: 2; stroke: #000000" x1="1440" y1="320" x2="1416" y2="346"/>
    <line style="fill: none; fill-opacity:0; stroke-width: 2; stroke: #000000" x1="1440" y1="320" x2="1464" y2="346"/>
    <text font-size="12.8" style="fill: #000000;text-anchor:middle;font-family:sans-serif;font-style:normal;font-weight:normal" x="1440" y="369.9">
      <tspan x="1440" y="369.9">FCA DB</tspan>
    </text>
  </g>
  <g>
    <ellipse style="fill: #ffffff" cx="1000" cy="404" rx="6" ry="6"/>
    <ellipse style="fill: none; fill-opacity:0; stroke-width: 2; stroke: #000000" cx="1000" cy="404" rx="6" ry="6"/>
    <line style="fill: none; fill-opacity:0; stroke-width: 2; stroke: #000000" x1="976" y1="416" x2="1024" y2="416"/>
    <line style="fill: none; fill-opacity:0; stroke-width: 2; stroke: #000000" x1="1000" y1="410" x2="1000" y2="440"/>
    <line style="fill: none; fill-opacity:0; stroke-width: 2; stroke: #000000" x1="1000" y1="440" x2="976" y2="466"/>
    <line style="fill: none; fill-opacity:0; stroke-width: 2; stroke: #000000" x1="1000" y1="440" x2="1024" y2="466"/>
    <text font-size="12.8" style="fill: #000000;text-anchor:middle;font-family:sans-serif;font-style:normal;font-weight:normal" x="1000" y="489.9">
      <tspan x="1000" y="489.9">FCA REST</tspan>
      <tspan x="1000" y="505.9">Interface</tspan>
    </text>
  </g>
  <g>
    <ellipse style="fill: #ffffff" cx="439.25" cy="240" rx="32.5" ry="20"/>
    <ellipse style="fill: none; fill-opacity:0; stroke-width: 2; stroke: #000000" cx="439.25" cy="240" rx="32.5" ry="20"/>
    <text font-size="12.8" style="fill: #000000;text-anchor:middle;font-family:sans-serif;font-style:normal;font-weight:normal" x="439.25" y="277.9">
      <tspan x="439.25" y="277.9">Edit Domain</tspan>
    </text>
  </g>
  <line style="fill: none; fill-opacity:0; stroke-width: 2; stroke: #000000" x1="165.863" y1="240" x2="399.031" y2="240"/>
  <g>
    <ellipse style="fill: #ffffff" cx="689.217" cy="85.7" rx="32.5" ry="20"/>
    <ellipse style="fill: none; fill-opacity:0; stroke-width: 2; stroke: #000000" cx="689.217" cy="85.7" rx="32.5" ry="20"/>
    <text font-size="12.8" style="fill: #000000;text-anchor:middle;font-family:sans-serif;font-style:normal;font-weight:normal" x="689.217" y="123.6">
      <tspan x="689.217" y="123.6">Add/Remove</tspan>
      <tspan x="689.217" y="139.6">Objects/Attributes</tspan>
    </text>
  </g>
  <line style="fill: none; fill-opacity:0; stroke-width: 2; stroke: #000000" x1="748.143" y1="114.956" x2="962.092" y2="221.179"/>
  <g>
    <ellipse style="fill: #ffffff" cx="1205.8" cy="320" rx="32.5" ry="20"/>
    <ellipse style="fill: none; fill-opacity:0; stroke-width: 2; stroke: #000000" cx="1205.8" cy="320" rx="32.5" ry="20"/>
    <text font-size="12.8" style="fill: #000000;text-anchor:middle;font-family:sans-serif;font-style:normal;font-weight:normal" x="1205.8" y="357.9">
      <tspan x="1205.8" y="357.9">Retreive Objects,</tspan>
      <tspan x="1205.8" y="373.9">Attributes, Domains,</tspan>
      <tspan x="1205.8" y="389.9">Learning Objects</tspan>
    </text>
  </g>
  <line style="fill: none; fill-opacity:0; stroke-width: 2; stroke: #000000" x1="1037.9" y1="254.731" x2="1151.84" y2="299.023"/>
  <line style="fill: none; fill-opacity:0; stroke-width: 2; stroke: #000000" x1="1164.91" y1="343.842" x2="1033.49" y2="420.474"/>
  <g>
    <ellipse style="fill: #ffffff" cx="688.934" cy="205.7" rx="32.5" ry="20"/>
    <ellipse style="fill: none; fill-opacity:0; stroke-width: 2; stroke: #000000" cx="688.934" cy="205.7" rx="32.5" ry="20"/>
    <text font-size="12.8" style="fill: #000000;text-anchor:middle;font-family:sans-serif;font-style:normal;font-weight:normal" x="688.934" y="243.6">
      <tspan x="688.934" y="243.6">Create Objects/</tspan>
      <tspan x="688.934" y="259.6">Attributes/LearningObjects</tspan>
    </text>
  </g>
  <g>
    <line style="fill: none; fill-opacity:0; stroke-width: 2; stroke: #000000" x1="491.017" y1="257.811" x2="665.226" y2="317.749"/>
    <polygon style="fill: none; fill-opacity:0; stroke-width: 2; stroke: #000000" points="492.644,253.083 481.561,254.557 489.39,262.539 "/>
  </g>
  <line style="fill: none; fill-opacity:0; stroke-width: 2; stroke: #000000" x1="745.862" y1="211.977" x2="962.095" y2="235.82"/>
  <g>
    <line style="fill: none; fill-opacity:0; stroke-width: 2; stroke: #000000" x1="488.922" y1="280.841" x2="687.058" y2="443.748"/>
    <polygon style="fill: #ffffff" points="492.098,276.979 481.198,274.49 485.747,284.703 "/>
    <polygon style="fill: none; fill-opacity:0; stroke-width: 2; stroke: #000000" points="492.098,276.979 481.198,274.49 485.747,284.703 "/>
  </g>
  <g>
    <ellipse style="fill: #ffffff" cx="688.336" cy="325.7" rx="32.5" ry="20"/>
    <ellipse style="fill: none; fill-opacity:0; stroke-width: 2; stroke: #000000" cx="688.336" cy="325.7" rx="32.5" ry="20"/>
    <text font-size="12.8" style="fill: #000000;text-anchor:middle;font-family:sans-serif;font-style:normal;font-weight:normal" x="688.336" y="363.6">
      <tspan x="688.336" y="363.6">Map Objects to Attributes</tspan>
    </text>
  </g>
  <g>
    <ellipse style="fill: #ffffff" cx="689.432" cy="445.7" rx="32.5" ry="20"/>
    <ellipse style="fill: none; fill-opacity:0; stroke-width: 2; stroke: #000000" cx="689.432" cy="445.7" rx="32.5" ry="20"/>
    <text font-size="12.8" style="fill: #000000;text-anchor:middle;font-family:sans-serif;font-style:normal;font-weight:normal" x="689.432" y="483.6">
      <tspan x="689.432" y="483.6">Add Learnign Obejcts to</tspan>
      <tspan x="689.432" y="499.6">Attributes/Objects</tspan>
    </text>
  </g>
  <line style="fill: none; fill-opacity:0; stroke-width: 2; stroke: #000000" x1="764.578" y1="304.735" x2="962.099" y2="250.422"/>
  <line style="fill: none; fill-opacity:0; stroke-width: 2; stroke: #000000" x1="721.145" y1="424.696" x2="962.241" y2="265.009"/>
  <g>
    <line style="fill: none; fill-opacity:0; stroke-width: 2; stroke: #000000" x1="491.62" y1="232.806" x2="641.811" y2="212.173"/>
    <polygon style="fill: none; fill-opacity:0; stroke-width: 2; stroke: #000000" points="490.939,227.852 481.713,234.167 492.3,237.759 "/>
  </g>
  <g>
    <line style="fill: none; fill-opacity:0; stroke-width: 2; stroke: #000000" x1="483.669" y1="212.581" x2="630.288" y2="122.076"/>
    <polygon style="fill: none; fill-opacity:0; stroke-width: 2; stroke: #000000" points="481.043,208.326 475.16,217.833 486.296,216.835 "/>
  </g>
  <line style="fill: none; fill-opacity:0; stroke-width: 2; stroke: #000000" x1="767.387" y1="444.269" x2="966.562" y2="440.614"/>
  <g>
    <ellipse style="fill: #ffffff" cx="140" cy="204" rx="6" ry="6"/>
    <ellipse style="fill: none; fill-opacity:0; stroke-width: 2; stroke: #000000" cx="140" cy="204" rx="6" ry="6"/>
    <line style="fill: none; fill-opacity:0; stroke-width: 2; stroke: #000000" x1="116" y1="216" x2="164" y2="216"/>
    <line style="fill: none; fill-opacity:0; stroke-width: 2; stroke: #000000" x1="140" y1="210" x2="140" y2="240"/>
    <line style="fill: none; fill-opacity:0; stroke-width: 2; stroke: #000000" x1="140" y1="240" x2="116" y2="266"/>
    <line style="fill: none; fill-opacity:0; stroke-width: 2; stroke: #000000" x1="140" y1="240" x2="164" y2="266"/>
    <text font-size="12.8" style="fill: #000000;text-anchor:middle;font-family:sans-serif;font-style:normal;font-weight:normal" x="140" y="289.9">
      <tspan x="140" y="289.9">User</tspan>
    </text>
  </g>
  <line style="fill: none; fill-opacity:0; stroke-width: 2; stroke: #000000" x1="1272.6" y1="320" x2="1414.01" y2="320"/>
</svg>
